# xmcd
#
# Track frame offsets: 
#        150
#        46481
#        74203
#        103320
#        134594
#        146175
#        155973
#        188528
#        215890
#        247911
#        258702
#        272584
#
# Disc length: 4208 seconds
#
# Revision: 1
# Processed by: cddbd v1.5.2PL0 Copyright (c) Steve Scherf et al.
# Submitted via: ExactAudioCopy v0.95b4
#
DISCID=cf106e0c
DTITLE=Puschnig, Dickbauer, Joos, Godard - 3 and 4 Ob'n und Unt'n - Aust
DTITLE=rian Songs
DYEAR=2002
DGENRE=Jazz
TTITLE0=Almenrausch, Enzian, Edelweiss
TTITLE1=In die Berg bin i´ gern
TTITLE2=In der Wiederschwing
TTITLE3=In der Molltalleitn
TTITLE4=Bottled Yodels
TTITLE5=Über den Berg
TTITLE6=Oh Glöckle vom Hamattal
TTITLE7=Ein Zwiefacher
TTITLE8=Der Wildschütz
TTITLE9=Ein Hund kam in die Küche
TTITLE10=Zwei Jodler und Schleinige
TTITLE11=We reach for the sky
EXTD=
EXTT0=
EXTT1=
EXTT2=
EXTT3=
EXTT4=
EXTT5=
EXTT6=
EXTT7=
EXTT8=
EXTT9=
EXTT10=
EXTT11=
PLAYORDER=
